<svg width="19" height="12" viewBox="0 0 19 12" fill="none" xmlns="http://www.w3.org/2000/svg">
<path d="M5.52257 0C6.07029 0 6.57686 0.0428571 7.03972 0.169714C7.45973 0.246896 7.86065 0.405283 8.22 0.636C8.55772 0.847715 8.81057 1.14514 8.97857 1.52657C9.14743 1.908 9.23143 2.37514 9.23143 2.88343C9.23143 3.47743 9.10543 3.98572 8.81057 4.36714C8.55772 4.74943 8.136 5.088 7.63029 5.34257C8.34686 5.55514 8.89457 5.93657 9.23143 6.44486C9.56915 6.954 9.78 7.59 9.78 8.31086C9.78 8.90486 9.65315 9.41315 9.44229 9.83743C9.23143 10.2617 8.89457 10.6431 8.51486 10.8977C8.10239 11.1706 7.64644 11.3712 7.16657 11.4909C6.66086 11.6186 6.15514 11.7034 5.64943 11.7034H0V0H5.52257ZM5.18486 4.74857C5.64857 4.74857 6.02829 4.62172 6.32314 4.41C6.618 4.19829 6.74486 3.816 6.74486 3.34972C6.74486 3.09514 6.702 2.84057 6.618 2.67172C6.534 2.502 6.40715 2.37429 6.23914 2.24743C6.07029 2.16257 5.90143 2.07771 5.69057 2.03571C5.47972 1.99286 5.26972 1.99286 5.016 1.99286H2.57143V4.74943H5.18572L5.18486 4.74857ZM5.31172 9.75257C5.56457 9.75257 5.81743 9.70972 6.02829 9.66772C6.24118 9.62723 6.44253 9.54031 6.618 9.41315C6.78976 9.28906 6.93345 9.13018 7.03972 8.94686C7.12372 8.73515 7.20857 8.48057 7.20857 8.184C7.20857 7.59 7.03972 7.16572 6.70286 6.86914C6.36514 6.61457 5.90143 6.48772 5.35372 6.48772H2.57143V9.75343H5.31172V9.75257ZM13.4477 9.70972C13.7846 10.0491 14.2903 10.2189 14.9649 10.2189C15.4286 10.2189 15.8503 10.092 16.1871 9.88029C16.5249 9.62572 16.7357 9.37115 16.8197 9.11657H18.8854C18.5477 10.134 18.042 10.8549 17.3683 11.3211C16.6929 11.7454 15.8923 12 14.9229 12C14.3026 12.0019 13.6876 11.8867 13.11 11.6606C12.5903 11.4656 12.1269 11.1453 11.7609 10.728C11.3694 10.3376 11.08 9.85693 10.9183 9.32829C10.7074 8.77714 10.6226 8.184 10.6226 7.50515C10.6226 6.86915 10.7074 6.276 10.9183 5.724C11.121 5.19265 11.421 4.70373 11.8029 4.28229C12.1826 3.90086 12.6463 3.56229 13.152 3.34972C13.7149 3.12348 14.3162 3.00822 14.9229 3.01029C15.6394 3.01029 16.272 3.138 16.8197 3.43457C17.3683 3.73114 17.7891 4.07057 18.1269 4.57972C18.4714 5.06874 18.7281 5.61403 18.8854 6.19114C18.9694 6.78429 19.0114 7.37829 18.9694 8.05629H12.8571C12.8571 8.73515 13.11 9.37115 13.4477 9.71058V9.70972ZM16.1031 5.25772C15.8083 4.96114 15.3446 4.79143 14.796 4.79143C14.4171 4.79143 14.1214 4.87629 13.8686 5.00314C13.6157 5.13086 13.4477 5.30057 13.2789 5.47029C13.1237 5.63422 13.021 5.84076 12.984 6.06343C12.9411 6.276 12.8991 6.44486 12.8991 6.61457H16.6929C16.6089 5.97857 16.398 5.55514 16.1031 5.25772ZM12.3934 0.805715H17.1146V1.95086H12.3943V0.805715H12.3934Z" fill="#7C7C7C"/>
</svg>
